<?xml version="1.0" encoding="utf-8"?>
<svg viewBox="195.862 151.911 118.004 127.265" xmlns="http://www.w3.org/2000/svg" xmlns:bx="https://boxy-svg.com">
  <path d="M 279.006 368.347 H 344.919 V 428.878 H 279.006 V 368.347 Z M 291.163 379.795 V 417.43 H 332.762 V 379.795 H 291.163 Z" style="fill: rgb(254, 185, 106); stroke: rgb(254, 185, 106);" transform="matrix(0.84738, 0.530988, -0.931561, 0.596371, 361.187139, -213.322238)" bx:shape="frame 279.006 368.347 65.913 60.531 12.157 11.448 0 0 0 0 1@d250ddbf"/>
  <path d="M 278.206 206.474 L 296.312 217.194 L 325.822 262.668 L 277.609 262.668 L 241.666 206.549 L 278.206 206.474 Z M 258.697 217.214 L 279.715 250.017 L 309.112 249.909 L 290.81 221.798 L 282.292 216.821 L 258.697 217.214 Z" style="fill: rgb(210, 114, 78); stroke: rgb(210, 114, 78);" transform="matrix(0.002717, 0.999996, -0.999996, 0.002717, 517.543221, -49.809281)"/>
  <path style="fill: rgb(242, 150, 72); stroke: rgb(242, 150, 72);" d="M 220.419 227.331 L 233.088 214.958 L 245.087 215.003 L 269.807 255.172 L 257.509 255.124 L 238.014 223.599 L 225.057 234.846 L 198.774 223.737 L 218.052 255.204 L 205.593 255.097 L 181.013 215.003 L 192.843 215.003 L 220.419 227.331 Z" transform="matrix(0.850442, 0.526069, -0.526069, 0.850442, 157.380663, -83.422937)"/>
</svg>